<svg width="175" height="152" viewBox="0 0 175 152" fill="none" xmlns="http://www.w3.org/2000/svg">
<path d="M119.317 150.969H42.0011C38.4714 150.969 35.0554 149.719 32.3566 147.438C29.6579 145.158 27.8502 141.995 27.253 138.508L16.6282 76.4745H144.689L134.065 138.508C133.468 141.995 131.66 145.158 128.961 147.438C126.263 149.719 122.847 150.969 119.317 150.969Z" fill="black"/>
<path d="M144.967 70.4909H16.3514C13.3028 70.4909 10.8314 72.968 10.8314 76.0236C10.8314 79.0792 13.3028 81.5562 16.3514 81.5562H144.967C148.015 81.5562 150.487 79.0792 150.487 76.0236C150.487 72.968 148.015 70.4909 144.967 70.4909Z" fill="white"/>
<path d="M144.968 81.9929H16.3514C14.772 81.9929 13.2574 81.3641 12.1406 80.2447C11.0238 79.1254 10.3964 77.6073 10.3964 76.0243C10.3964 74.4413 11.0238 72.9232 12.1406 71.8038C13.2574 70.6845 14.772 70.0557 16.3514 70.0557H144.968C146.547 70.0557 148.062 70.6845 149.179 71.8038C150.296 72.9232 150.923 74.4413 150.923 76.0243C150.923 77.6073 150.296 79.1254 149.179 80.2447C148.062 81.3641 146.547 81.9929 144.968 81.9929ZM16.3528 70.9283C15.0043 70.9283 13.7111 71.4652 12.7576 72.4209C11.8041 73.3765 11.2684 74.6727 11.2684 76.0243C11.2684 77.3758 11.8041 78.672 12.7576 79.6277C13.7111 80.5834 15.0043 81.1203 16.3528 81.1203H144.968C146.316 81.1203 147.61 80.5834 148.563 79.6277C149.517 78.672 150.052 77.3758 150.052 76.0243C150.052 74.6727 149.517 73.3765 148.563 72.4209C147.61 71.4652 146.316 70.9283 144.968 70.9283H16.3528Z" fill="#757575"/>
<path d="M97.6896 72.6283C96.2517 74.4402 96.5515 77.0773 98.3592 78.5185C100.167 79.9597 102.798 79.6592 104.236 77.8473L128.851 46.8297C130.289 45.0178 129.989 42.3807 128.181 40.9395C126.374 39.4983 123.742 39.7988 122.305 41.6107L97.6896 72.6283Z" fill="white"/>
<path d="M100.953 79.8676C99.9112 79.8682 98.9005 79.513 98.0874 78.8606C97.1302 78.0957 96.5147 76.9814 96.3761 75.7623C96.2375 74.5432 96.5871 73.3187 97.3481 72.3576L121.963 41.3396C122.34 40.8639 122.808 40.4674 123.338 40.1728C123.868 39.8781 124.452 39.691 125.054 39.6222C125.657 39.5534 126.267 39.6043 126.85 39.7718C127.433 39.9394 127.977 40.2204 128.451 40.5987C128.926 40.9771 129.322 41.4455 129.616 41.9771C129.91 42.5087 130.096 43.0932 130.165 43.6971C130.233 44.301 130.183 44.9125 130.016 45.4968C129.848 46.0811 129.568 46.6266 129.191 47.1023L104.576 78.1199C104.2 78.5968 103.733 78.9941 103.202 79.2889C102.672 79.5837 102.088 79.77 101.485 79.8372C101.308 79.8574 101.131 79.8675 100.953 79.8676ZM98.6293 78.1779C99.0144 78.4849 99.4561 78.7129 99.9291 78.8489C100.402 78.9849 100.897 79.0261 101.386 78.9703C101.875 78.9144 102.348 78.7626 102.779 78.5234C103.209 78.2843 103.588 77.9625 103.895 77.5765L128.509 46.5585C128.815 46.1725 129.043 45.7298 129.179 45.2557C129.314 44.7816 129.356 44.2853 129.3 43.7952C129.244 43.3052 129.093 42.8309 128.854 42.3994C128.616 41.968 128.295 41.5879 127.91 41.2808C127.525 40.9737 127.083 40.7456 126.61 40.6096C126.137 40.4735 125.642 40.4322 125.153 40.488C124.664 40.5438 124.191 40.6955 123.76 40.9346C123.33 41.1736 122.951 41.4953 122.644 41.8813L98.0296 72.8989C97.412 73.6789 97.1283 74.6725 97.2407 75.6618C97.3532 76.6511 97.8525 77.5554 98.6293 78.1761V78.1779Z" fill="#757575"/>
<path d="M100.682 77.1709C101.553 77.1709 102.258 76.4636 102.258 75.5911C102.258 74.7186 101.553 74.0114 100.682 74.0114C99.8116 74.0114 99.106 74.7186 99.106 75.5911C99.106 76.4636 99.8116 77.1709 100.682 77.1709Z" fill="white"/>
<path d="M100.687 77.6075C100.389 77.6077 100.095 77.5418 99.8261 77.4146C99.5569 77.2874 99.3193 77.1019 99.1302 76.8716C98.9411 76.6413 98.8052 76.3719 98.7324 76.0827C98.6596 75.7936 98.6516 75.4918 98.709 75.1991C98.7832 74.8248 98.9619 74.4793 99.2243 74.2027C99.4867 73.9262 99.822 73.73 100.191 73.6369C100.561 73.5439 100.949 73.5578 101.31 73.6771C101.672 73.7964 101.992 74.0162 102.234 74.3109C102.476 74.6055 102.63 74.963 102.677 75.3417C102.724 75.7204 102.663 76.1047 102.501 76.4501C102.339 76.7954 102.083 77.0875 101.761 77.2924C101.44 77.4973 101.067 77.6066 100.687 77.6075ZM99.5633 75.3688C99.5118 75.6284 99.5517 75.8978 99.6763 76.1311C99.8008 76.3645 100.002 76.5474 100.246 76.6486C100.49 76.7498 100.762 76.7631 101.014 76.6862C101.267 76.6093 101.485 76.4469 101.632 76.2268C101.778 76.0067 101.844 75.7425 101.818 75.4791C101.792 75.2158 101.676 74.9696 101.489 74.7825C101.302 74.5955 101.057 74.4792 100.794 74.4534C100.531 74.4276 100.267 74.4939 100.048 74.641C99.7967 74.8097 99.6223 75.0714 99.5633 75.3688Z" fill="#757575"/>
<path d="M39.0143 41.6109C37.5764 39.799 34.9453 39.4984 33.1376 40.9396C31.3298 42.3808 31.03 45.018 32.4679 46.8299L57.0829 77.8475C58.5208 79.6594 61.1519 79.9599 62.9596 78.5187C64.7674 77.0775 65.0672 74.4403 63.6293 72.6284L39.0143 41.6109Z" fill="white"/>
<path d="M60.3607 79.8648C59.6653 79.8662 58.9786 79.7099 58.3519 79.4077C57.7253 79.1055 57.175 78.6651 56.7421 78.1196L32.127 47.1019C31.3646 46.1413 31.0142 44.9164 31.1528 43.6967C31.2914 42.4771 31.9077 41.3626 32.8662 40.5984C33.8246 39.8342 35.0467 39.483 36.2636 39.6219C37.4804 39.7608 38.5924 40.3786 39.3548 41.3392L63.9699 72.3572C64.5107 73.0381 64.8489 73.8581 64.9457 74.723C65.0424 75.5879 64.8938 76.4627 64.5169 77.2467C64.14 78.0308 63.55 78.6924 62.8148 79.1555C62.0796 79.6186 61.229 79.8644 60.3607 79.8648ZM35.7372 40.4663C35.0327 40.4668 34.3426 40.6665 33.7462 41.0423C33.1498 41.4182 32.6712 41.955 32.3653 42.5911C32.0595 43.2273 31.9389 43.937 32.0173 44.6387C32.0957 45.3405 32.3699 46.0059 32.8085 46.5585L57.4233 77.5761C58.0426 78.3547 58.9447 78.8553 59.9317 78.968C60.9188 79.0808 61.9102 78.7965 62.6883 78.1775C63.0735 77.8705 63.3945 77.4905 63.6331 77.0591C63.8717 76.6278 64.0232 76.1535 64.0789 75.6635C64.1346 75.1734 64.0935 74.6772 63.9579 74.2031C63.8222 73.729 63.5947 73.2863 63.2884 72.9003L38.6736 41.8827C38.3223 41.44 37.8758 41.0827 37.3673 40.8374C36.8588 40.5921 36.3016 40.4653 35.7372 40.4663Z" fill="#757575"/>
<path d="M60.6358 77.1709C61.5063 77.1709 62.2119 76.4636 62.2119 75.5911C62.2119 74.7186 61.5063 74.0113 60.6358 74.0113C59.7653 74.0113 59.0597 74.7186 59.0597 75.5911C59.0597 76.4636 59.7653 77.1709 60.6358 77.1709Z" fill="white"/>
<path d="M60.6317 77.6075C60.2507 77.6068 59.8777 77.4977 59.5562 77.2929C59.2346 77.0881 58.9777 76.7959 58.8153 76.4505C58.6529 76.105 58.5918 75.7205 58.6389 75.3415C58.6861 74.9626 58.8396 74.6049 59.0817 74.31C59.3238 74.0151 59.6444 73.7951 60.0063 73.6758C60.3682 73.5564 60.7565 73.5424 61.126 73.6356C61.4955 73.7287 61.831 73.9251 62.0934 74.2019C62.3559 74.4787 62.5346 74.8245 62.6087 75.1991C62.6661 75.4917 62.6582 75.7934 62.5854 76.0826C62.5127 76.3718 62.3769 76.6412 62.1879 76.8715C61.9988 77.1018 61.7612 77.2872 61.4922 77.4145C61.2231 77.5417 60.9292 77.6077 60.6317 77.6075ZM60.6383 74.4473C60.4031 74.4467 60.1734 74.5191 59.9808 74.6544C59.7881 74.7898 59.6419 74.9815 59.5623 75.2034C59.4826 75.4252 59.4732 75.6663 59.5356 75.8937C59.5979 76.1211 59.7288 76.3236 59.9104 76.4734C60.092 76.6233 60.3154 76.7133 60.55 76.731C60.7846 76.7487 61.0189 76.6932 61.2209 76.5723C61.4228 76.4513 61.5825 76.2708 61.6781 76.0553C61.7736 75.8399 61.8004 75.6001 61.7548 75.3688C61.7034 75.1096 61.5641 74.8762 61.3606 74.7083C61.1571 74.5403 60.9019 74.4481 60.6383 74.4473Z" fill="#757575"/>
<path d="M83.9178 101.013C83.9178 99.2091 82.4587 97.7466 80.6588 97.7466C78.8589 97.7466 77.3998 99.2091 77.3998 101.013V131.897C77.3998 133.701 78.8589 135.164 80.6588 135.164C82.4587 135.164 83.9178 133.701 83.9178 131.897V101.013Z" fill="white"/>
<path d="M52.7626 100.695C52.4861 98.9125 50.8201 97.692 49.0415 97.9692C47.263 98.2463 46.0454 99.9162 46.322 101.699L51.0561 132.216C51.3326 133.999 52.9986 135.219 54.7771 134.942C56.5557 134.665 57.7733 132.995 57.4967 131.212L52.7626 100.695Z" fill="white"/>
<path d="M104.494 131.212C104.217 132.995 105.435 134.664 107.213 134.942C108.992 135.219 110.658 133.998 110.934 132.216L115.669 101.699C115.945 99.9159 114.728 98.246 112.949 97.9688C111.17 97.6917 109.505 98.9121 109.228 100.695L104.494 131.212Z" fill="white"/>
<path d="M64.577 56.443C64.4837 56.4431 64.3927 56.4139 64.3168 56.3596C64.2193 56.2905 64.1532 56.1855 64.1331 56.0676C64.1129 55.9498 64.1405 55.8287 64.2096 55.7312C64.293 55.6135 72.4402 43.8351 63.3449 33.0972C61.7351 31.1868 59.7271 29.6515 57.4614 28.599C55.1957 27.5465 52.7273 27.0022 50.229 27.0043H50.1064C50.9701 30.0047 50.816 32.6726 49.593 34.7192C49.0718 35.644 48.3028 36.4049 47.3726 36.9162C46.4423 37.4276 45.3877 37.669 44.3277 37.6133C43.4502 37.5414 42.6127 37.2152 41.9178 36.6746C41.2228 36.1339 40.7007 35.4024 40.4152 34.5695C39.4149 31.9603 40.4603 29.4304 43.2156 27.7999C44.961 26.8374 46.9005 26.2795 48.8906 26.1676C48.2432 24.4511 47.4013 22.8144 46.3815 21.2895C43.0974 16.274 37.1122 12.8019 29.9599 11.7638C23.8985 10.8843 18.0896 11.9202 15.159 14.4023C15.0677 14.4795 14.9494 14.5173 14.8303 14.5074C14.7111 14.4974 14.6008 14.4406 14.5236 14.3493C14.4463 14.258 14.4085 14.1398 14.4184 14.0206C14.4284 13.9015 14.4852 13.7911 14.5765 13.7139C17.6951 11.0727 23.784 9.95607 30.0893 10.8739C37.4972 11.9495 43.7101 15.5662 47.1361 20.7977C48.2469 22.4568 49.1504 24.2457 49.8265 26.1243C52.5214 26.0596 55.1966 26.6003 57.6548 27.7065C60.1131 28.8128 62.2918 30.4565 64.0306 32.5166C73.5843 43.795 65.03 56.1315 64.9426 56.255C64.9009 56.3131 64.846 56.3604 64.7824 56.3931C64.7189 56.4258 64.6484 56.4429 64.577 56.443ZM49.1832 27.0372C47.2537 27.1194 45.3693 27.6461 43.6767 28.5762C41.2983 29.9836 40.4175 32.0509 41.2591 34.2472C41.4872 34.9201 41.9064 35.512 42.4656 35.9505C43.0247 36.3889 43.6995 36.6548 44.4075 36.7157C45.2988 36.7557 46.1837 36.5469 46.9632 36.1127C47.7426 35.6785 48.386 35.036 48.8212 34.2571C49.9437 32.3773 50.0465 29.8785 49.1818 27.0372H49.1832Z" fill="#292A2E"/>
<path d="M7.37865 21.6704C6.61259 21.9006 5.78696 21.8226 5.07754 21.453C4.36813 21.0835 3.83098 20.4517 3.58047 19.692C3.32996 18.9324 3.38588 18.105 3.73632 17.3859C4.08676 16.6669 4.70404 16.1131 5.45673 15.8424C6.20941 15.5717 7.03803 15.6055 7.76616 15.9366C8.49429 16.2677 9.0644 16.87 9.3551 17.6152C9.6458 18.3604 9.63412 19.1896 9.32256 19.9263C9.011 20.663 8.42416 21.249 7.687 21.5595C7.58632 21.6021 7.48338 21.6391 7.37865 21.6704ZM5.87976 16.6612C5.80674 16.6831 5.73496 16.709 5.66473 16.7387C5.14605 16.9574 4.73324 17.37 4.51423 17.8885C4.29523 18.4071 4.28733 18.9906 4.49222 19.5149C4.69711 20.0392 5.0986 20.4628 5.61117 20.6955C6.12375 20.9281 6.7069 20.9515 7.23643 20.7605C7.76597 20.5696 8.20003 20.1794 8.44617 19.6732C8.69231 19.167 8.73108 18.5846 8.55422 18.0502C8.37736 17.5158 7.99885 17.0716 7.4993 16.8121C6.99975 16.5527 6.41865 16.4985 5.87976 16.6612Z" fill="#292A2E"/>
<path d="M7.37327 14.6065C6.64861 14.8228 5.86954 14.7637 5.18585 14.4404C4.50216 14.1171 3.96211 13.5525 3.66953 12.8551C3.43494 12.296 3.37142 11.6799 3.487 11.0847C3.60258 10.4895 3.89206 9.942 4.31884 9.51133C4.74563 9.08067 5.29053 8.78625 5.88466 8.66529C6.47878 8.54433 7.09542 8.60228 7.65661 8.8318C8.2178 9.06132 8.69832 9.4521 9.0374 9.95473C9.37649 10.4574 9.5589 11.0493 9.56158 11.6556C9.56425 12.2619 9.38707 12.8553 9.05244 13.3609C8.7178 13.8665 8.24075 14.2615 7.68161 14.496C7.58082 14.5382 7.4779 14.575 7.37327 14.6065ZM5.87617 9.59676C5.80228 9.61893 5.7296 9.64496 5.65844 9.67475C5.1296 9.89689 4.71059 10.3199 4.49352 10.8508C4.27644 11.3818 4.27906 11.9772 4.5008 12.5062C4.66251 12.8918 4.9325 13.2223 5.2781 13.4577C5.6237 13.6931 6.03011 13.8234 6.44816 13.8327C6.86622 13.842 7.27801 13.7299 7.63373 13.5101C7.98945 13.2903 8.27386 12.9721 8.45255 12.594C8.63125 12.216 8.69656 11.7942 8.64061 11.3798C8.58466 10.9655 8.40983 10.5761 8.13728 10.259C7.86472 9.94188 7.50611 9.71052 7.10484 9.59291C6.70356 9.4753 6.27679 9.47648 5.87617 9.59631V9.59676Z" fill="#292A2E"/>
<path d="M6.49827 17.7945C8.71208 17.7945 10.5067 16.5958 10.5067 15.1172C10.5067 13.6386 8.71208 12.4399 6.49827 12.4399C4.28445 12.4399 2.48979 13.6386 2.48979 15.1172C2.48979 16.5958 4.28445 17.7945 6.49827 17.7945Z" fill="white"/>
<path d="M8.27259 17.9915C7.69789 18.1613 7.1016 18.247 6.50232 18.2457C4.0013 18.2457 2.03944 16.8753 2.03944 15.1213C2.03944 13.3672 3.99544 11.9918 6.49556 11.9891C7.58556 11.9682 8.65797 12.2659 9.58125 12.8457C9.99592 13.0617 10.3435 13.3872 10.5861 13.7869C10.8288 14.1865 10.9574 14.645 10.9578 15.1126C10.9582 15.5802 10.8305 16.0389 10.5885 16.439C10.3466 16.8391 9.99959 17.1652 9.58531 17.382C9.18031 17.649 8.73792 17.8544 8.27259 17.9915ZM4.99892 13.1053C3.79439 13.466 2.94058 14.2445 2.94103 15.119C2.94103 16.3258 4.57156 17.3441 6.50232 17.3423C7.41436 17.3615 8.31225 17.1147 9.08628 16.6319C9.37658 16.4982 9.62243 16.284 9.79467 16.0148C9.96691 15.7456 10.0583 15.4326 10.058 15.113C10.0577 14.7934 9.96578 14.4805 9.79306 14.2116C9.62034 13.9427 9.37411 13.729 9.08358 13.5958C8.30898 13.114 7.41066 12.8687 6.49871 12.8898C5.99097 12.8885 5.48575 12.9611 4.99892 13.1053Z" fill="#292A2E"/>
<path d="M7.48144 17.7129L7.38678 12.5062L6.09209 12.4539L6.00148 17.7738L7.48144 17.7129Z" fill="#292A2E"/>
<path d="M1.18023 16.2501C1.40879 16.2501 1.59406 16.0648 1.59406 15.8362C1.59406 15.6077 1.40879 15.4224 1.18023 15.4224C0.951681 15.4224 0.766403 15.6077 0.766403 15.8362C0.766403 16.0648 0.951681 16.2501 1.18023 16.2501Z" fill="#292A2E"/>
<path d="M1.50344 14.0358C1.732 14.0358 1.91727 13.8505 1.91727 13.6219C1.91727 13.3934 1.732 13.2081 1.50344 13.2081C1.27489 13.2081 1.08961 13.3934 1.08961 13.6219C1.08961 13.8505 1.27489 14.0358 1.50344 14.0358Z" fill="#292A2E"/>
<path d="M97.5989 60.0441C97.5024 60.0441 97.4085 60.0131 97.3309 59.9557C97.2533 59.8984 97.1962 59.8176 97.1679 59.7254C95.6727 54.1417 95.2737 48.3212 95.9931 42.5857C97.1585 34.2009 101.783 23.1965 117.194 18.378C119.363 17.6808 121.587 17.1709 123.842 16.8538C124.569 12.3184 127.331 7.3984 133.509 4.00391C148.188 -4.06173 158.103 3.17489 158.202 3.24882C158.297 3.32056 158.36 3.42735 158.377 3.54571C158.394 3.66407 158.363 3.78429 158.292 3.87994C158.22 3.97558 158.113 4.03882 157.995 4.05573C157.876 4.07263 157.756 4.04183 157.661 3.9701C157.567 3.89977 148.091 -2.97982 133.944 4.7946C128.171 7.96685 125.528 12.5199 124.777 16.7465C131.574 16.0771 134.83 18.3446 136.291 20.0572C137.195 21.087 137.775 22.3601 137.961 23.7178C138.146 25.0755 137.928 26.4577 137.334 27.6923C136.864 28.6902 136.102 29.5221 135.15 30.0782C134.197 30.6342 133.099 30.8883 131.999 30.8069C128.202 30.5842 125.061 27.3907 123.996 22.6709C123.645 21.0732 123.551 19.4295 123.719 17.8023C121.598 18.1071 119.505 18.5883 117.464 19.2408C105.452 22.9964 98.5302 30.8939 96.8857 42.7124C96.1812 48.3177 96.5698 54.0064 98.0298 59.4639C98.0505 59.5313 98.0551 59.6026 98.0432 59.6721C98.0313 59.7416 98.0032 59.8073 97.9613 59.864C97.9194 59.9207 97.8648 59.9668 97.8018 59.9985C97.7389 60.0303 97.6694 60.0468 97.5989 60.0468V60.0441ZM124.638 17.6896C124.451 19.2859 124.531 20.9023 124.876 22.4721C125.85 26.7898 128.666 29.7078 132.051 29.9066C132.974 29.9727 133.895 29.7584 134.694 29.2918C135.492 28.8252 136.131 28.1282 136.527 27.292C137.042 26.2154 137.23 25.011 137.065 23.8287C136.901 22.6465 136.393 21.5387 135.604 20.6432C133.496 18.1697 129.649 17.1707 124.638 17.6896Z" fill="#292A2E"/>
<path d="M168.702 7.80502C168.095 7.80374 167.501 7.63081 166.988 7.30617C166.475 6.98152 166.064 6.51841 165.803 5.97028C165.542 5.42215 165.441 4.81134 165.512 4.20834C165.583 3.60535 165.823 3.03476 166.205 2.56243C166.586 2.09009 167.093 1.73526 167.668 1.53889C168.242 1.34252 168.861 1.31262 169.452 1.45263C170.042 1.59265 170.582 1.89687 171.007 2.33019C171.432 2.76351 171.726 3.30826 171.855 3.90158C171.956 4.3719 171.951 4.85887 171.839 5.32683C171.728 5.79478 171.513 6.23188 171.211 6.60611C170.909 6.98033 170.527 7.28222 170.092 7.48967C169.658 7.69711 169.184 7.80486 168.702 7.80502ZM168.709 2.26744C168.23 2.26743 167.762 2.41614 167.371 2.69306C166.979 2.96998 166.683 3.36149 166.524 3.81363C166.364 4.26577 166.349 4.75627 166.48 5.21754C166.611 5.67881 166.881 6.08813 167.254 6.38909C167.628 6.69006 168.085 6.86784 168.564 6.89795C169.042 6.92806 169.518 6.809 169.926 6.55719C170.334 6.30538 170.654 5.93322 170.842 5.49199C171.029 5.05076 171.076 4.56219 170.974 4.09362C170.864 3.57519 170.579 3.1105 170.166 2.77785C169.754 2.44521 169.239 2.26494 168.709 2.26744Z" fill="#292A2E"/>
<path d="M167.345 15.1624C166.519 15.1624 165.724 14.8456 165.124 14.2772C164.525 13.7088 164.166 12.9322 164.121 12.1072C164.077 11.2821 164.351 10.4715 164.886 9.84211C165.421 9.21273 166.178 8.81252 166.999 8.72388C167.82 8.63523 168.645 8.86489 169.302 9.36557C169.959 9.86626 170.399 10.5999 170.532 11.4154C170.665 12.2309 170.48 13.0662 170.015 13.7494C169.55 14.4326 168.842 14.9117 168.034 15.0881C167.808 15.1375 167.577 15.1624 167.345 15.1624ZM167.356 9.62441C167.19 9.62448 167.023 9.64247 166.861 9.67806C166.285 9.80453 165.779 10.1469 165.448 10.6347C165.117 11.1225 164.985 11.7187 165.081 12.3005C165.176 12.8824 165.49 13.4056 165.959 13.7627C166.428 14.1197 167.017 14.2834 167.603 14.22C168.189 14.1566 168.728 13.8709 169.11 13.4218C169.492 12.9727 169.688 12.3943 169.656 11.8055C169.624 11.2168 169.368 10.6626 168.941 10.2569C168.513 9.85115 167.946 9.62481 167.356 9.62441Z" fill="#292A2E"/>
<path d="M172.186 9.12199C172.471 7.58223 170.832 5.98913 168.527 5.56373C166.221 5.13833 164.122 6.04172 163.838 7.58148C163.554 9.12124 165.192 10.7143 167.498 11.1397C169.803 11.5651 171.902 10.6617 172.186 9.12199Z" fill="white"/>
<path d="M168.633 11.6963C168.225 11.6956 167.817 11.6579 167.416 11.5836C166.282 11.3955 165.228 10.8807 164.383 10.1023C164.012 9.78652 163.728 9.38259 163.555 8.9278C163.383 8.47301 163.327 7.98203 163.395 7.50026C163.504 7.02621 163.731 6.58731 164.054 6.22409C164.378 5.86087 164.788 5.58504 165.246 5.42209C166.319 5.01709 167.481 4.91296 168.608 5.12097C169.736 5.32898 170.785 5.84122 171.642 6.60227C172.012 6.918 172.296 7.32193 172.469 7.77673C172.642 8.23152 172.697 8.7225 172.629 9.20427C172.52 9.67832 172.293 10.1172 171.97 10.4804C171.646 10.8437 171.236 11.1195 170.778 11.2824C170.098 11.5637 169.369 11.7045 168.633 11.6963ZM167.388 5.90895C166.776 5.90117 166.168 6.01724 165.602 6.2502C165.282 6.35743 164.993 6.54285 164.763 6.7897C164.532 7.03654 164.367 7.33701 164.282 7.6639C164.245 7.99967 164.292 8.33938 164.419 8.65227C164.547 8.96515 164.75 9.24133 165.011 9.45581C165.74 10.0922 166.627 10.5208 167.579 10.6964C168.531 10.8721 169.512 10.7885 170.42 10.4543C170.741 10.3471 171.029 10.1617 171.26 9.91483C171.491 9.66798 171.656 9.36752 171.741 9.04063C171.779 8.70483 171.731 8.36504 171.604 8.05212C171.477 7.73919 171.273 7.46303 171.012 7.24871C170.294 6.59406 169.401 6.16279 168.442 6.00767C168.095 5.94302 167.743 5.90997 167.39 5.90895H167.388Z" fill="#292A2E"/>
<path d="M167.492 5.45996L166.585 10.8993L167.923 11.204L169.044 5.6822L167.492 5.45996Z" fill="#292A2E"/>
<path d="M172.926 11.3118C173.168 11.3118 173.364 11.1156 173.364 10.8736C173.364 10.6316 173.168 10.4354 172.926 10.4354C172.684 10.4354 172.488 10.6316 172.488 10.8736C172.488 11.1156 172.684 11.3118 172.926 11.3118Z" fill="#292A2E"/>
<path d="M173.69 9.06856C173.932 9.06856 174.128 8.87238 174.128 8.63039C174.128 8.38839 173.932 8.19221 173.69 8.19221C173.448 8.19221 173.251 8.38839 173.251 8.63039C173.251 8.87238 173.448 9.06856 173.69 9.06856Z" fill="#292A2E"/>
</svg>
