<svg width="196" height="218" viewBox="0 0 196 218" fill="none" xmlns="http://www.w3.org/2000/svg">
<g clip-path="url(#clip0_1_4392)">
<path d="M63.7523 77.0735L38.2219 180.868C37.1462 185.233 37.4688 189.83 39.1434 193.998C40.818 198.167 43.7585 201.693 47.5429 204.071C57.2815 210.182 73.3819 216.797 98.0026 217.555C124.1 218.359 141.461 210.795 151.727 203.928C155.355 201.499 158.149 197.997 159.726 193.902C161.304 189.807 161.587 185.32 160.536 181.056L134.959 77.0735" fill="#F4F4F4"/>
<path d="M99.355 81.8943C133.204 81.8943 160.644 72.5573 160.644 61.0395C160.644 49.5216 133.204 40.1846 99.355 40.1846C65.5059 40.1846 38.0657 49.5216 38.0657 61.0395C38.0657 72.5573 65.5059 81.8943 99.355 81.8943Z" fill="#757575"/>
<path d="M99.3552 82.2405C82.9476 82.2405 67.5176 80.0648 55.9074 76.1131C44.1808 72.1228 37.7225 66.7693 37.7225 61.0386C37.7225 55.3078 44.1802 49.9543 55.9074 45.964C67.5176 42.0135 82.9476 39.8367 99.3552 39.8367C115.763 39.8367 131.192 42.0126 142.803 45.964C154.529 49.9543 160.988 55.3078 160.988 61.0386C160.988 66.7693 154.53 72.1228 142.803 76.1131C131.192 80.0648 115.762 82.2405 99.3552 82.2405ZM99.3552 40.5307C83.0202 40.5307 67.6681 42.6935 56.1263 46.6207C44.7009 50.5084 38.4085 55.6291 38.4085 61.0395C38.4085 66.4498 44.7009 71.5705 56.1263 75.4582C67.6681 79.3854 83.0205 81.5482 99.3552 81.5482C115.69 81.5482 131.042 79.3854 142.584 75.4582C154.009 71.5705 160.301 66.4498 160.301 61.0395C160.301 55.6291 154.009 50.5084 142.584 46.6207C131.042 42.6935 115.69 40.5307 99.3552 40.5307Z" fill="#757575"/>
<path d="M99.3552 73.9497C143.829 73.9497 179.881 63.9419 179.881 51.5967C179.881 39.2515 143.829 29.2438 99.3552 29.2438C54.8818 29.2438 18.829 39.2515 18.829 51.5967C18.829 63.9419 54.8818 73.9497 99.3552 73.9497Z" fill="black"/>
<path d="M99.3551 74.2958C77.8157 74.2958 57.5614 71.9662 42.3234 67.7362C26.9514 63.4692 18.4856 57.7375 18.4856 51.5958C18.4856 45.4541 26.9514 39.7234 42.3234 35.4554C57.5614 31.2254 77.8157 28.8961 99.3551 28.8961C120.894 28.8961 141.148 31.2254 156.386 35.4554C171.758 39.7225 180.224 45.4544 180.224 51.5958C180.224 57.7372 171.758 63.4683 156.386 67.7362C141.148 71.9662 120.894 74.2958 99.3551 74.2958ZM99.3551 29.5899C77.8756 29.5899 57.6858 31.9108 42.5052 36.1247C35.1438 38.1679 29.3701 40.5438 25.3438 43.1861C21.2482 45.8741 19.1717 48.7037 19.1717 51.5967C19.1717 54.4897 21.2482 57.3197 25.3438 60.0074C29.3701 62.6496 35.1438 65.0255 42.5052 67.0691C57.6858 71.2835 77.8744 73.6036 99.3551 73.6036C120.836 73.6036 141.024 71.2829 156.205 67.0691C163.566 65.0255 169.34 62.6496 173.366 60.0074C177.462 57.3197 179.538 54.4897 179.538 51.5967C179.538 48.7037 177.462 45.8741 173.366 43.1861C169.34 40.5438 163.566 38.1679 156.205 36.1247C141.024 31.9108 120.834 29.5911 99.3551 29.5911V29.5899Z" fill="#757575"/>
<path d="M136.406 38.5687C136.406 48.4505 119.433 50.7784 101.732 51.2013C82.4481 51.6619 62.3049 48.2993 62.3049 38.5687C62.3326 28.6718 66.2485 19.1898 73.1939 12.2015C80.1394 5.21314 89.5477 1.2888 99.3562 1.2888C109.165 1.2888 118.573 5.21314 125.518 12.2015C132.464 19.1898 136.38 28.6718 136.407 38.5687H136.406Z" fill="white"/>
<path d="M131.597 36.6124C131.508 36.6124 131.423 36.5774 131.359 36.5148C131.295 36.4522 131.257 36.3669 131.255 36.2771C131.151 32.7299 130.456 29.2257 129.2 25.911C129.167 25.8253 129.17 25.73 129.207 25.6462C129.244 25.5624 129.313 25.4969 129.398 25.464C129.482 25.4312 129.577 25.4338 129.66 25.4712C129.743 25.5086 129.808 25.5778 129.841 25.6635C131.124 29.0506 131.834 32.6313 131.94 36.2558C131.943 36.3475 131.91 36.4366 131.848 36.5035C131.785 36.5703 131.699 36.6095 131.608 36.6124H131.597Z" fill="#757575"/>
<path d="M126.474 20.1089C126.417 20.109 126.361 20.0947 126.31 20.0672C126.26 20.0397 126.217 20 126.186 19.9517C121.66 12.9797 114.615 8.06613 106.551 6.25744C106.464 6.2358 106.389 6.18089 106.342 6.10438C106.295 6.02787 106.279 5.93579 106.298 5.84773C106.317 5.75967 106.37 5.68257 106.444 5.63282C106.519 5.58308 106.609 5.5646 106.697 5.58134C114.936 7.4292 122.135 12.4497 126.761 19.5736C126.794 19.6258 126.814 19.6862 126.816 19.7484C126.819 19.8107 126.805 19.8725 126.775 19.9273C126.746 19.9822 126.702 20.028 126.649 20.0599C126.596 20.0919 126.536 20.1088 126.474 20.1089Z" fill="#757575"/>
<path d="M98.1397 51.5899C81.7586 51.5899 69.2875 48.8101 64.4013 43.9979C62.7819 42.4024 61.961 40.5755 61.961 38.5684C61.9472 33.6046 62.9042 28.6867 64.7772 24.0967C66.6502 19.5066 69.4025 15.3346 72.8762 11.8196C76.3499 8.30469 80.4769 5.51591 85.0206 3.61308C89.5643 1.71025 94.4355 0.730774 99.355 0.730774C104.275 0.730774 109.146 1.71025 113.689 3.61308C118.233 5.51591 122.36 8.30469 125.834 11.8196C129.308 15.3346 132.06 19.5066 133.933 24.0967C135.806 28.6867 136.763 33.6046 136.749 38.5684C136.749 43.2297 133.066 46.6602 125.801 48.7644C120.212 50.3835 112.342 51.2936 101.74 51.5468C100.521 51.5755 99.3209 51.5899 98.1397 51.5899ZM99.3543 1.52862C89.622 1.53969 80.2915 5.44557 73.4098 12.3894C66.528 19.3332 62.6569 28.7478 62.6459 38.5678C62.6459 40.3815 63.3974 42.0416 64.8797 43.502C69.9872 48.5351 83.7593 51.2829 101.723 50.8549C116.465 50.5031 136.065 48.846 136.065 38.5687C136.054 28.7485 132.183 19.3336 125.301 12.3898C118.418 5.44591 109.088 1.54019 99.3552 1.52951L99.3543 1.52862Z" fill="#757575"/>
<path d="M39.3971 54.5887C42.0543 54.5887 44.2084 52.4152 44.2084 49.734C44.2084 47.0528 42.0543 44.8793 39.3971 44.8793C36.74 44.8793 34.5859 47.0528 34.5859 49.734C34.5859 52.4152 36.74 54.5887 39.3971 54.5887Z" fill="white"/>
<path d="M39.3973 54.9348C38.3778 54.9348 37.3813 54.6298 36.5337 54.0583C35.6861 53.4868 35.0254 52.6746 34.6353 51.7243C34.2452 50.7739 34.1431 49.7282 34.342 48.7194C34.5409 47.7105 35.0318 46.7838 35.7526 46.0565C36.4735 45.3291 37.3919 44.8338 38.3917 44.6331C39.3915 44.4325 40.4279 44.5355 41.3697 44.9291C42.3115 45.3227 43.1165 45.9893 43.6829 46.8446C44.2493 47.6999 44.5515 48.7054 44.5515 49.734C44.55 51.1129 44.0064 52.4348 43.0402 53.4098C42.0739 54.3848 40.7638 54.9332 39.3973 54.9348ZM39.3973 45.2252C38.5135 45.2252 37.6495 45.4896 36.9147 45.985C36.1798 46.4805 35.6071 47.1847 35.2689 48.0085C34.9306 48.8324 34.8422 49.739 35.0146 50.6136C35.187 51.4883 35.6126 52.2917 36.2375 52.9222C36.8625 53.5528 37.6587 53.9822 38.5255 54.1562C39.3923 54.3302 40.2908 54.2409 41.1073 53.8996C41.9238 53.5584 42.6217 52.9805 43.1127 52.239C43.6037 51.4975 43.8658 50.6258 43.8658 49.734C43.8646 48.5385 43.3934 47.3924 42.5557 46.5471C41.7179 45.7018 40.582 45.2263 39.3973 45.2252Z" fill="#757575"/>
<path d="M99.3552 68.4918C102.012 68.4918 104.166 66.3183 104.166 63.6372C104.166 60.956 102.012 58.7825 99.3552 58.7825C96.698 58.7825 94.5439 60.956 94.5439 63.6372C94.5439 66.3183 96.698 68.4918 99.3552 68.4918Z" fill="white"/>
<path d="M99.3551 68.838C98.3357 68.838 97.3392 68.5329 96.4915 67.9615C95.6439 67.39 94.9833 66.5778 94.5932 65.6274C94.203 64.6771 94.101 63.6314 94.2998 62.6225C94.4987 61.6137 94.9896 60.687 95.7105 59.9597C96.4313 59.2323 97.3497 58.737 98.3496 58.5363C99.3494 58.3356 100.386 58.4386 101.328 58.8323C102.269 59.2259 103.074 59.8925 103.641 60.7478C104.207 61.603 104.509 62.6086 104.509 63.6372C104.508 65.016 103.964 66.3379 102.998 67.3129C102.032 68.2879 100.722 68.8364 99.3551 68.838ZM99.3551 59.1286C98.4714 59.1286 97.6075 59.393 96.8727 59.8884C96.1379 60.3839 95.5652 61.088 95.227 61.9118C94.8888 62.7357 94.8003 63.6422 94.9727 64.5167C95.1451 65.3913 95.5707 66.1947 96.1956 66.8252C96.8205 67.4557 97.6166 67.8851 98.4834 68.0591C99.3502 68.2331 100.249 68.1438 101.065 67.8025C101.881 67.4613 102.579 66.8834 103.07 66.142C103.561 65.4006 103.823 64.5289 103.823 63.6372C103.822 62.4418 103.351 61.2958 102.513 60.4505C101.676 59.6053 100.54 59.1299 99.3551 59.1286Z" fill="#757575"/>
<path d="M159.302 54.5887C161.96 54.5887 164.114 52.4152 164.114 49.734C164.114 47.0528 161.96 44.8793 159.302 44.8793C156.645 44.8793 154.491 47.0528 154.491 49.734C154.491 52.4152 156.645 54.5887 159.302 54.5887Z" fill="white"/>
<path d="M159.302 54.9348C158.283 54.9348 157.286 54.6298 156.439 54.0583C155.591 53.4868 154.93 52.6746 154.54 51.7243C154.15 50.7739 154.048 49.7282 154.247 48.7194C154.446 47.7105 154.937 46.7838 155.658 46.0565C156.378 45.3291 157.297 44.8338 158.297 44.6331C159.297 44.4325 160.333 44.5355 161.275 44.9291C162.217 45.3227 163.022 45.9893 163.588 46.8446C164.154 47.6999 164.457 48.7054 164.457 49.734C164.455 51.1129 163.911 52.4348 162.945 53.4098C161.979 54.3848 160.669 54.9332 159.302 54.9348ZM159.302 45.2252C158.418 45.2252 157.555 45.4896 156.82 45.985C156.085 46.4805 155.512 47.1847 155.174 48.0085C154.836 48.8324 154.747 49.739 154.92 50.6136C155.092 51.4883 155.518 52.2917 156.143 52.9222C156.767 53.5528 157.564 53.9822 158.43 54.1562C159.297 54.3302 160.196 54.2409 161.012 53.8996C161.829 53.5584 162.527 52.9805 163.018 52.239C163.509 51.4975 163.771 50.6258 163.771 49.734C163.77 48.5385 163.298 47.3924 162.461 46.5471C161.623 45.7018 160.487 45.2263 159.302 45.2252Z" fill="#757575"/>
<path d="M133.733 63.6372C136.391 63.6372 138.545 61.4637 138.545 58.7825C138.545 56.1013 136.391 53.9278 133.733 53.9278C131.076 53.9278 128.922 56.1013 128.922 58.7825C128.922 61.4637 131.076 63.6372 133.733 63.6372Z" fill="white"/>
<path d="M133.733 63.9833C132.714 63.9833 131.717 63.6783 130.87 63.1068C130.022 62.5353 129.361 61.7231 128.971 60.7727C128.581 59.8224 128.479 58.7767 128.678 57.7679C128.877 56.759 129.368 55.8323 130.089 55.105C130.809 54.3776 131.728 53.8823 132.728 53.6816C133.727 53.481 134.764 53.5839 135.706 53.9776C136.647 54.3712 137.452 55.0378 138.019 55.8931C138.585 56.7484 138.888 57.7539 138.888 58.7825C138.886 60.1613 138.342 61.4833 137.376 62.4583C136.41 63.4333 135.1 63.9817 133.733 63.9833ZM133.733 54.2736C132.849 54.2736 131.985 54.538 131.251 55.0334C130.516 55.5288 129.943 56.2329 129.605 57.0568C129.266 57.8807 129.178 58.7873 129.35 59.6619C129.523 60.5366 129.948 61.34 130.573 61.9706C131.198 62.6012 131.994 63.0307 132.861 63.2047C133.728 63.3787 134.626 63.2894 135.443 62.9482C136.259 62.6069 136.957 62.029 137.448 61.2875C137.939 60.546 138.201 59.6743 138.201 58.7825C138.2 57.5871 137.729 56.441 136.891 55.5957C136.054 54.7504 134.918 54.2749 133.733 54.2736Z" fill="#757575"/>
<path d="M64.9768 64.298C67.634 64.298 69.7881 62.1245 69.7881 59.4433C69.7881 56.7622 67.634 54.5887 64.9768 54.5887C62.3196 54.5887 60.1655 56.7622 60.1655 59.4433C60.1655 62.1245 62.3196 64.298 64.9768 64.298Z" fill="white"/>
<path d="M64.9768 64.6444C63.9574 64.6444 62.9609 64.3394 62.1132 63.7679C61.2656 63.1965 60.605 62.3842 60.2149 61.4339C59.8247 60.4836 59.7227 59.4379 59.9216 58.429C60.1204 57.4202 60.6113 56.4935 61.3322 55.7661C62.053 55.0388 62.9714 54.5435 63.9713 54.3428C64.9711 54.1421 66.0075 54.2451 66.9493 54.6387C67.8911 55.0324 68.6961 55.699 69.2625 56.5542C69.8288 57.4095 70.1311 58.415 70.1311 59.4436C70.1295 60.8225 69.586 62.1444 68.6197 63.1194C67.6534 64.0944 66.3433 64.6429 64.9768 64.6444ZM64.9768 54.9348C64.0929 54.9345 63.2288 55.1987 62.4938 55.694C61.7587 56.1892 61.1858 56.8933 60.8473 57.7172C60.5089 58.5411 60.4202 59.4477 60.5925 60.3225C60.7648 61.1972 61.1903 62.0007 61.8152 62.6315C62.4401 63.2622 63.2363 63.6917 64.1032 63.8658C64.9701 64.0398 65.8686 63.9506 66.6852 63.6093C67.5018 63.2681 68.1998 62.6901 68.6908 61.9486C69.1819 61.207 69.4439 60.3352 69.4439 59.4433C69.4426 58.2482 68.9716 57.1023 68.1342 56.2571C67.2968 55.4119 66.1613 54.9364 64.9768 54.9348Z" fill="#757575"/>
<path d="M150.372 34.3017C150.014 35.3975 149.28 36.3287 148.303 36.9282C147.326 37.5278 146.169 37.7566 145.04 37.5735C143.91 37.3905 142.883 36.8077 142.141 35.9295C141.399 35.0513 140.991 33.9352 140.991 32.7812C140.991 32.6727 140.995 32.5666 141.002 32.4605C144.288 33.0143 147.418 33.628 150.372 34.3017Z" fill="white"/>
<path d="M145.802 37.9814C144.435 37.9801 143.125 37.4317 142.158 36.4566C141.192 35.4816 140.649 34.1595 140.647 32.7806C140.647 32.6646 140.652 32.5508 140.659 32.4372L140.684 32.0555L141.058 32.1185C144.362 32.6754 147.522 33.2962 150.449 33.9633L150.817 34.0476L150.699 34.4096C150.36 35.4498 149.704 36.3554 148.824 36.9969C147.945 37.6384 146.887 37.983 145.802 37.9814ZM141.335 32.8676C141.354 33.8989 141.724 34.8922 142.382 35.6818C143.04 36.4714 143.946 37.0096 144.949 37.2066C145.953 37.4036 146.993 37.2476 147.896 36.7645C148.799 36.2814 149.511 35.5004 149.913 34.5519C147.223 33.9466 144.341 33.3808 141.335 32.8676Z" fill="#757575"/>
<path d="M57.2022 32.7812C57.2019 33.9254 56.8011 35.0328 56.0706 35.908C55.34 36.7831 54.3266 37.3699 53.2092 37.5646C52.0918 37.7594 50.942 37.5498 49.9628 36.9726C48.9837 36.3955 48.2379 35.488 47.8572 34.4102C50.7999 33.7317 53.9188 33.1088 57.1953 32.5481C57.1998 32.6243 57.2022 32.7026 57.2022 32.7812Z" fill="white"/>
<path d="M52.3914 37.9814C51.3278 37.9799 50.2905 37.6473 49.421 37.0289C48.5516 36.4106 47.8924 35.5367 47.5334 34.5265L47.4036 34.1594L47.7801 34.0727C50.7373 33.3909 53.8856 32.7633 57.1372 32.207L57.514 32.1425L57.5372 32.5271C57.5422 32.6102 57.5446 32.6957 57.5446 32.7812C57.543 34.1598 56.9996 35.4815 56.0336 36.4563C55.0675 37.4312 53.7577 37.9797 52.3914 37.9814ZM48.327 34.6574C48.7452 35.5792 49.4592 36.332 50.3536 36.7941C51.248 37.2562 52.2707 37.4006 53.2564 37.2042C54.2422 37.0077 55.1336 36.4818 55.7868 35.7113C56.4399 34.9408 56.8166 33.9707 56.8561 32.9575C53.901 33.4699 51.0359 34.0407 48.327 34.6574Z" fill="#757575"/>
<path d="M104.476 129.831C105.991 130.937 107.306 132.234 108.424 133.724L108.569 133.823C108.635 133.937 108.674 134.04 108.692 134.12C109.117 134.667 109.497 135.216 109.806 135.824L110.457 136.883C110.692 137.332 110.887 138.003 111.031 138.322C111.179 138.635 111.348 138.971 111.455 139.293C115.591 139.063 119.666 140.194 123.062 142.554C124.612 143.615 126.011 144.894 127.148 146.397C134.22 155.565 130.768 167.806 122.168 174.683C117.621 178.093 112.353 180.441 106.804 181.506C98.9608 182.88 91.0046 183.419 83.0322 183.118L82.1679 183.07L81.7966 182.236C78.5317 174.881 76.0529 167.198 74.3858 159.278C73.3333 153.693 73.5238 147.907 74.9529 142.362C78.0502 131.718 88.0334 123.949 99.2193 127.203C100.097 127.444 100.947 127.773 101.749 128.181L102.043 128.383C102.801 128.754 103.518 129.175 104.206 129.646L104.476 129.831ZM121.111 152.613C120.338 151.576 118.866 151.365 117.802 152.151C116.761 152.953 116.538 154.459 117.322 155.533C118.498 157.203 118.505 159.483 117.345 161.21L117.294 161.287C116.868 161.82 116.67 162.482 116.732 163.137C116.794 163.793 117.145 164.39 117.651 164.812C118.676 165.474 120.081 165.249 120.853 164.26L121.05 163.966C123.447 160.555 123.468 155.993 121.111 152.613Z" fill="black"/>
<path d="M4.19088 77.4196C4.14585 77.4196 4.10125 77.4106 4.05965 77.3932C4.01805 77.3758 3.98026 77.3503 3.94843 77.3182C3.9166 77.286 3.89136 77.2479 3.87415 77.2059C3.85695 77.1639 3.84811 77.1189 3.84815 77.0735V67.3088C3.8468 67.2625 3.85467 67.2164 3.87129 67.1733C3.88792 67.1301 3.91296 67.0907 3.94493 67.0575C3.9769 67.0243 4.01516 66.9979 4.05743 66.9798C4.0997 66.9618 4.14513 66.9525 4.19103 66.9525C4.23692 66.9525 4.28235 66.9618 4.32462 66.9798C4.36689 66.9979 4.40515 67.0243 4.43712 67.0575C4.46909 67.0907 4.49413 67.1301 4.51076 67.1733C4.52738 67.2164 4.53525 67.2625 4.53391 67.3088V77.0735C4.53395 77.1189 4.5251 77.1639 4.50787 77.206C4.49065 77.248 4.46538 77.2861 4.43352 77.3183C4.40166 77.3504 4.36383 77.3759 4.3222 77.3933C4.28056 77.4107 4.23594 77.4196 4.19088 77.4196Z" fill="#262626"/>
<path d="M7.3486 72.5374H1.0334C0.942427 72.5374 0.855177 72.5009 0.790847 72.436C0.726517 72.3711 0.690376 72.2831 0.690376 72.1913C0.690376 72.0995 0.726517 72.0114 0.790847 71.9465C0.855177 71.8816 0.942427 71.8452 1.0334 71.8452H7.3486C7.43958 71.8452 7.52683 71.8816 7.59116 71.9465C7.65549 72.0114 7.69163 72.0995 7.69163 72.1913C7.69163 72.2831 7.65549 72.3711 7.59116 72.436C7.52683 72.5009 7.43958 72.5374 7.3486 72.5374Z" fill="#262626"/>
<path d="M73.5071 114.424C73.4621 114.424 73.4175 114.415 73.3759 114.397C73.3343 114.38 73.2965 114.354 73.2647 114.322C73.2328 114.29 73.2076 114.252 73.1904 114.21C73.1732 114.168 73.1644 114.123 73.1644 114.077V104.313C73.163 104.266 73.1709 104.22 73.1875 104.177C73.2042 104.134 73.2292 104.095 73.2612 104.061C73.2932 104.028 73.3314 104.002 73.3737 103.984C73.4159 103.966 73.4614 103.956 73.5073 103.956C73.5532 103.956 73.5986 103.966 73.6409 103.984C73.6831 104.002 73.7214 104.028 73.7534 104.061C73.7853 104.095 73.8104 104.134 73.827 104.177C73.8436 104.22 73.8515 104.266 73.8502 104.313V114.077C73.8502 114.123 73.8413 114.168 73.8241 114.21C73.8069 114.252 73.7816 114.29 73.7498 114.322C73.7179 114.354 73.6801 114.38 73.6384 114.397C73.5968 114.415 73.5522 114.424 73.5071 114.424Z" fill="#262626"/>
<path d="M76.6649 109.541H70.3496C70.2587 109.541 70.1714 109.505 70.1071 109.44C70.0428 109.375 70.0066 109.287 70.0066 109.195C70.0066 109.103 70.0428 109.015 70.1071 108.95C70.1714 108.886 70.2587 108.849 70.3496 108.849H76.6649C76.7558 108.849 76.8431 108.886 76.9074 108.95C76.9717 109.015 77.0079 109.103 77.0079 109.195C77.0079 109.287 76.9717 109.375 76.9074 109.44C76.8431 109.505 76.7558 109.541 76.6649 109.541Z" fill="#262626"/>
<path d="M21.9641 210.369C21.9191 210.369 21.8745 210.36 21.8329 210.343C21.7913 210.325 21.7535 210.3 21.7217 210.268C21.6898 210.236 21.6646 210.198 21.6474 210.156C21.6302 210.114 21.6214 210.069 21.6214 210.023V200.258C21.62 200.212 21.6279 200.166 21.6445 200.123C21.6612 200.08 21.6862 200.04 21.7182 200.007C21.7502 199.974 21.7884 199.948 21.8307 199.929C21.8729 199.911 21.9184 199.902 21.9643 199.902C22.0102 199.902 22.0556 199.911 22.0979 199.929C22.1401 199.948 22.1784 199.974 22.2104 200.007C22.2423 200.04 22.2674 200.08 22.284 200.123C22.3006 200.166 22.3085 200.212 22.3072 200.258V210.023C22.3072 210.069 22.2983 210.114 22.2811 210.156C22.2639 210.198 22.2386 210.236 22.2068 210.268C22.1749 210.3 22.1371 210.326 22.0954 210.343C22.0538 210.36 22.0092 210.369 21.9641 210.369Z" fill="#262626"/>
<path d="M25.1219 205.487H18.8067C18.7157 205.487 18.6284 205.451 18.5641 205.386C18.4998 205.321 18.4636 205.233 18.4636 205.141C18.4636 205.049 18.4998 204.961 18.5641 204.896C18.6284 204.831 18.7157 204.795 18.8067 204.795H25.1219C25.2128 204.795 25.3001 204.831 25.3644 204.896C25.4287 204.961 25.4649 205.049 25.4649 205.141C25.4649 205.233 25.4287 205.321 25.3644 205.386C25.3001 205.451 25.2128 205.487 25.1219 205.487Z" fill="#262626"/>
<path d="M168.916 131.805C168.825 131.805 168.738 131.768 168.673 131.703C168.609 131.638 168.573 131.55 168.573 131.459V116.605C168.573 116.513 168.609 116.425 168.673 116.36C168.738 116.296 168.825 116.259 168.916 116.259C169.007 116.259 169.094 116.296 169.159 116.36C169.223 116.425 169.259 116.513 169.259 116.605V131.459C169.259 131.55 169.223 131.638 169.158 131.703C169.094 131.768 169.007 131.805 168.916 131.805Z" fill="#262626"/>
<path d="M173.72 124.378H164.114C164.023 124.378 163.935 124.341 163.871 124.277C163.807 124.212 163.771 124.124 163.771 124.032C163.771 123.94 163.807 123.852 163.871 123.787C163.935 123.722 164.023 123.686 164.114 123.686H173.72C173.811 123.686 173.898 123.722 173.963 123.787C174.027 123.852 174.063 123.94 174.063 124.032C174.063 124.124 174.027 124.212 173.963 124.277C173.898 124.341 173.811 124.378 173.72 124.378Z" fill="#262626"/>
<path d="M49.3808 175.097C49.2898 175.097 49.2025 175.06 49.1382 174.995C49.0739 174.931 49.0377 174.843 49.0377 174.751V159.897C49.0377 159.806 49.0739 159.718 49.1382 159.653C49.2025 159.588 49.2898 159.551 49.3808 159.551C49.4717 159.551 49.559 159.588 49.6233 159.653C49.6876 159.718 49.7238 159.806 49.7238 159.897V174.751C49.7237 174.842 49.6876 174.93 49.6232 174.995C49.5589 175.06 49.4717 175.097 49.3808 175.097Z" fill="#262626"/>
<path d="M54.1849 167.67H44.5783C44.4874 167.67 44.4001 167.634 44.3358 167.569C44.2714 167.504 44.2353 167.416 44.2353 167.324C44.2353 167.232 44.2714 167.144 44.3358 167.079C44.4001 167.014 44.4874 166.978 44.5783 166.978H54.1849C54.2759 166.978 54.3631 167.014 54.4274 167.079C54.4918 167.144 54.5279 167.232 54.5279 167.324C54.5279 167.416 54.4918 167.504 54.4274 167.569C54.3631 167.634 54.2759 167.67 54.1849 167.67Z" fill="#262626"/>
<path d="M149.208 199.905C149.117 199.905 149.03 199.869 148.965 199.804C148.901 199.739 148.865 199.651 148.865 199.559V184.706C148.865 184.614 148.901 184.526 148.965 184.461C149.03 184.396 149.117 184.36 149.208 184.36C149.299 184.36 149.386 184.396 149.451 184.461C149.515 184.526 149.551 184.614 149.551 184.706V199.559C149.551 199.651 149.515 199.739 149.45 199.804C149.386 199.869 149.299 199.905 149.208 199.905Z" fill="#262626"/>
<path d="M154.012 192.479H144.406C144.315 192.479 144.227 192.442 144.163 192.377C144.099 192.312 144.063 192.224 144.063 192.132C144.063 192.041 144.099 191.953 144.163 191.888C144.227 191.823 144.315 191.786 144.406 191.786H154.012C154.103 191.786 154.191 191.823 154.255 191.888C154.319 191.953 154.355 192.041 154.355 192.132C154.355 192.224 154.319 192.312 154.255 192.377C154.191 192.442 154.103 192.479 154.012 192.479Z" fill="#262626"/>
<path d="M192.297 84.8462C192.252 84.8463 192.208 84.8373 192.166 84.82C192.125 84.8026 192.087 84.7771 192.055 84.7449C192.023 84.7128 191.998 84.6746 191.98 84.6326C191.963 84.5906 191.954 84.5456 191.954 84.5001V77.0734C191.954 76.9816 191.991 76.8936 192.055 76.8287C192.119 76.7638 192.206 76.7273 192.297 76.7273C192.388 76.7273 192.476 76.7638 192.54 76.8287C192.604 76.8936 192.64 76.9816 192.64 77.0734V84.5001C192.641 84.5456 192.632 84.5906 192.614 84.6326C192.597 84.6746 192.572 84.7128 192.54 84.7449C192.508 84.7771 192.47 84.8026 192.429 84.82C192.387 84.8373 192.343 84.8463 192.297 84.8462Z" fill="#262626"/>
<path d="M194.699 81.1331H189.896C189.851 81.1331 189.806 81.1241 189.765 81.1067C189.723 81.0893 189.685 81.0638 189.653 81.0317C189.622 80.9995 189.596 80.9614 189.579 80.9194C189.562 80.8774 189.553 80.8324 189.553 80.7869C189.553 80.7415 189.562 80.6965 189.579 80.6545C189.596 80.6125 189.622 80.5743 189.653 80.5422C189.685 80.5101 189.723 80.4846 189.765 80.4672C189.806 80.4498 189.851 80.4408 189.896 80.4408H194.699C194.79 80.4408 194.878 80.4773 194.942 80.5422C195.006 80.6071 195.042 80.6951 195.042 80.7869C195.042 80.8787 195.006 80.9668 194.942 81.0317C194.878 81.0966 194.79 81.1331 194.699 81.1331Z" fill="#262626"/>
</g>
<defs>
<clipPath id="clip0_1_4392">
<rect width="194.352" height="216.777" fill="white" transform="translate(0.690285 0.837265)"/>
</clipPath>
</defs>
</svg>
